<?xml version="1.0" standalone="no"?>
<svg xmlns:xlink="http://www.w3.org/1999/xlink" id="wave" style="transform:rotate(0deg); transition: 0.3s" viewBox="0 0 1440 490" version="1.1" xmlns="http://www.w3.org/2000/svg"><defs><linearGradient id="sw-gradient-0" x1="0" x2="0" y1="1" y2="0"><stop stop-color="rgba(115, 142, 250, 1)" offset="0%"/><stop stop-color="rgba(115, 142, 250, 1)" offset="100%"/></linearGradient></defs><path style="transform:translate(0, 0px); opacity:1" fill="url(#sw-gradient-0)" d="M0,98L80,147C160,196,320,294,480,277.7C640,261,800,131,960,114.3C1120,98,1280,196,1440,212.3C1600,229,1760,163,1920,114.3C2080,65,2240,33,2400,16.3C2560,0,2720,0,2880,0C3040,0,3200,0,3360,73.5C3520,147,3680,294,3840,326.7C4000,359,4160,278,4320,277.7C4480,278,4640,359,4800,359.3C4960,359,5120,278,5280,236.8C5440,196,5600,196,5760,187.8C5920,180,6080,163,6240,179.7C6400,196,6560,245,6720,236.8C6880,229,7040,163,7200,179.7C7360,196,7520,294,7680,343C7840,392,8000,392,8160,400.2C8320,408,8480,425,8640,392C8800,359,8960,278,9120,277.7C9280,278,9440,359,9600,334.8C9760,310,9920,180,10080,179.7C10240,180,10400,310,10560,318.5C10720,327,10880,212,11040,155.2C11200,98,11360,98,11440,98L11520,98L11520,490L11440,490C11360,490,11200,490,11040,490C10880,490,10720,490,10560,490C10400,490,10240,490,10080,490C9920,490,9760,490,9600,490C9440,490,9280,490,9120,490C8960,490,8800,490,8640,490C8480,490,8320,490,8160,490C8000,490,7840,490,7680,490C7520,490,7360,490,7200,490C7040,490,6880,490,6720,490C6560,490,6400,490,6240,490C6080,490,5920,490,5760,490C5600,490,5440,490,5280,490C5120,490,4960,490,4800,490C4640,490,4480,490,4320,490C4160,490,4000,490,3840,490C3680,490,3520,490,3360,490C3200,490,3040,490,2880,490C2720,490,2560,490,2400,490C2240,490,2080,490,1920,490C1760,490,1600,490,1440,490C1280,490,1120,490,960,490C800,490,640,490,480,490C320,490,160,490,80,490L0,490Z"/></svg>