<svg xmlns="http://www.w3.org/2000/svg" xmlns:xlink="http://www.w3.org/1999/xlink" viewBox="0 0 511.48 167.31"><defs><style>.cls-1{fill:none;}.cls-2{fill:#a7a9ac;}.cls-3{clip-path:url(#clip-path);}.cls-4{fill:url(#linear-gradient);}.cls-5{fill:url(#linear-gradient-2);}.cls-6{fill:url(#linear-gradient-3);}.cls-7{fill:url(#linear-gradient-4);}.cls-8{fill:#f9f9f9;}.cls-9{fill:#f9f9fa;}</style><clipPath id="clip-path"><path class="cls-1" d="M110.84,73.21,87.78,59.89,43.3,34.21c-2.47-1.43-4.94-.57-4.94,2.41V141.27c0,2.24,1.76,3.2,3.91,2L87.78,117l23.06-13.31L133,90.84c2.6-1.5,2.35-3.56.16-4.74S110.84,73.21,110.84,73.21Z"/></clipPath><linearGradient id="linear-gradient" x1="66.93" y1="31.77" x2="66.93" y2="145.07" gradientUnits="userSpaceOnUse"><stop offset="0" stop-color="#257cb0"/><stop offset="0.21" stop-color="#3c8fb3"/><stop offset="0.74" stop-color="#73bdba"/><stop offset="1" stop-color="#89cfbd"/></linearGradient><linearGradient id="linear-gradient-2" x1="38.36" y1="59.89" x2="110.84" y2="59.89" gradientUnits="userSpaceOnUse"><stop offset="0" stop-color="#52c1ad"/><stop offset="1" stop-color="#dee89a"/></linearGradient><linearGradient id="linear-gradient-3" x1="74.6" y1="88.42" x2="74.6" y2="145.49" gradientUnits="userSpaceOnUse"><stop offset="0" stop-color="#ec413d"/><stop offset="0.19" stop-color="#d74352"/><stop offset="0.74" stop-color="#a04888"/><stop offset="1" stop-color="#8a4a9d"/></linearGradient><linearGradient id="linear-gradient-4" x1="116.35" y1="73.21" x2="116.35" y2="103.64" gradientUnits="userSpaceOnUse"><stop offset="0" stop-color="#f58879"/><stop offset="0.62" stop-color="#fbb276"/><stop offset="1" stop-color="#fec874"/></linearGradient></defs><title>Asset 2</title><g id="Layer_2" data-name="Layer 2"><g id="Layer_1-2" data-name="Layer 1"><path class="cls-2" d="M511.48,144.7a22.61,22.61,0,0,1-22.61,22.61H22.61A22.61,22.61,0,0,1,0,144.7V22.61A22.61,22.61,0,0,1,22.61,0H488.87a22.61,22.61,0,0,1,22.61,22.61Z"/><g id="PLAY"><g class="cls-3"><polygon class="cls-4" points="38.37 31.77 38.37 88.42 38.37 145.07 95.5 88.42 38.37 31.77"/><polygon class="cls-5" points="110.84 73.21 87.78 59.89 38.37 31.36 38.37 31.77 95.5 88.42 110.84 73.21"/><polygon class="cls-6" points="38.37 145.07 38.37 145.49 87.78 116.95 110.84 103.64 95.5 88.42 38.37 145.07"/><polygon class="cls-7" points="110.84 73.21 95.5 88.42 110.84 103.64 137.2 88.42 110.84 73.21"/></g></g><path class="cls-8" d="M398.06,110.57a14.11,14.11,0,0,1-5.88-1.19,11.06,11.06,0,0,1-4.46-3.65h-.37a42.59,42.59,0,0,1,.37,5.47v13.56h-5V77h4l.7,4.51h.24a11.55,11.55,0,0,1,4.48-3.91,13.6,13.6,0,0,1,5.86-1.2q6.56,0,10.12,4.48t3.56,12.56q0,8.13-3.62,12.62A12.23,12.23,0,0,1,398.06,110.57Zm-.72-29.91q-5.05,0-7.31,2.79c-1.5,1.87-2.27,4.83-2.31,8.9v1.11q0,7,2.31,9.94c1.55,2,4,3,7.43,3a7.74,7.74,0,0,0,6.69-3.45c1.61-2.31,2.42-5.48,2.42-9.54s-.81-7.26-2.42-9.45A8,8,0,0,0,397.34,80.66Z"/><path class="cls-8" d="M423.29,110h-5V63.19h5Z"/><path class="cls-8" d="M452,110l-1-4.69h-.24a13.76,13.76,0,0,1-4.91,4.19,14.89,14.89,0,0,1-6.12,1.1q-4.91,0-7.68-2.52c-1.86-1.69-2.78-4.08-2.78-7.19q0-10,16-10.46l5.59-.18v-2c0-2.58-.55-4.49-1.67-5.72s-2.89-1.85-5.33-1.85a21.74,21.74,0,0,0-9.32,2.52L433,79.3a23.71,23.71,0,0,1,5.34-2.07,23.18,23.18,0,0,1,5.82-.75q5.89,0,8.73,2.61c1.9,1.75,2.84,4.54,2.84,8.39V110Zm-11.28-3.52A10.13,10.13,0,0,0,448,103.9a9.43,9.43,0,0,0,2.66-7.16v-3l-5,.21c-4,.14-6.83.75-8.58,1.85a5.56,5.56,0,0,0-2.63,5.09,5.11,5.11,0,0,0,1.64,4.12A6.8,6.8,0,0,0,440.71,106.45Z"/><path class="cls-8" d="M458.58,77h5.35l7.22,18.79a71.82,71.82,0,0,1,2.94,9.29h.24c.27-1,.81-2.77,1.64-5.25s3.56-10.08,8.16-22.83h5.36l-14.16,37.52q-2.11,5.56-4.92,7.89a10.42,10.42,0,0,1-6.9,2.33,20.12,20.12,0,0,1-4.51-.51v-4a17.42,17.42,0,0,0,3.7.37q5.15,0,7.33-5.78l1.84-4.69Z"/><path class="cls-8" d="M305.61,80.08a11.64,11.64,0,0,1,4.89,9.31c0,5.09-2.89,7.51-5.79,9.78-.9.9-1.93,1.87-1.93,3.38a3.76,3.76,0,0,0,1.79,3l2.49,1.93c3,2.55,5.78,4.9,5.78,9.65,0,6.48-6.27,13-18.12,13-10,0-14.82-4.76-14.82-9.86,0-2.48,1.24-6,5.31-8.41,4.27-2.62,10.06-3,13.16-3.17-1-1.24-2.07-2.55-2.07-4.68a6.26,6.26,0,0,1,.69-2.69c-.76.07-1.51.13-2.21.13-7.3,0-11.43-5.44-11.43-10.81a12.41,12.41,0,0,1,4.41-9.24c3.93-3.24,8.61-3.79,12.34-3.79h14.19l-4.41,2.48Zm-4.9,30.6a10.92,10.92,0,0,0-1.58-.07,27.47,27.47,0,0,0-7.24,1.11c-1.51.55-5.92,2.2-5.92,7.1s4.75,8.41,12.13,8.41c6.61,0,10.13-3.18,10.13-7.45C308.23,116.26,306,114.41,300.71,110.68Zm2-13.09a6.94,6.94,0,0,0,1.72-5c0-5-3-12.69-8.68-12.69a6.43,6.43,0,0,0-4.82,2.28,8,8,0,0,0-1.52,5.1c0,4.62,2.69,12.27,8.62,12.27A7,7,0,0,0,302.71,97.59Z"/><path class="cls-8" d="M262.22,109.58a16.24,16.24,0,0,1-16.79-16.24c0-9,7.36-16.72,17.83-16.72A16.09,16.09,0,0,1,279.7,92.86C279.7,101,273.44,109.58,262.22,109.58Zm8.6-5.57a12.5,12.5,0,0,0,2.07-7.64c0-6.06-2.89-17.62-11.43-17.62a9.57,9.57,0,0,0-6.19,2.35c-2.68,2.4-3.17,5.43-3.17,8.39,0,6.81,3.38,18,11.71,18A8.78,8.78,0,0,0,270.82,104Z"/><path class="cls-8" d="M224.92,109.58a16.24,16.24,0,0,1-16.79-16.24c0-9,7.37-16.72,17.83-16.72A16.09,16.09,0,0,1,242.4,92.86C242.4,101,236.14,109.58,224.92,109.58Zm8.61-5.57a12.49,12.49,0,0,0,2.06-7.64c0-6.06-2.89-17.62-11.42-17.62A9.57,9.57,0,0,0,218,81.1c-2.69,2.4-3.17,5.43-3.17,8.39,0,6.81,3.37,18,11.7,18A8.81,8.81,0,0,0,233.53,104Z"/><path class="cls-8" d="M202.88,108.5l-9.9,2.28A72.58,72.58,0,0,1,181.57,112c-19.09,0-26.36-14-26.36-25,0-13.41,10.31-25.86,27.95-25.86a39.9,39.9,0,0,1,10.59,1.45,27,27,0,0,1,9.13,4.29l-5.75,5.46-2.42.55L196.44,70c-2.35-2.28-6.64-6.49-14.8-6.49-10.93,0-19.16,8.3-19.16,20.4,0,13,9.41,25.25,24.48,25.25a20.63,20.63,0,0,0,8.79-1.73V96.33l-10.44.55,5.53-3h14.67l-1.8,1.73a1.59,1.59,0,0,0-.69,1.11c-.08.62-.14,2.63-.14,3.32Z"/><path class="cls-8" d="M327.47,106.51c-2.28-.21-2.76-.62-2.76-3.32V64c0-.15,0-.3,0-.44.28-2.42,1-2.84,3.12-4.09H318L312.78,62h5.29v42.71c0,1.38-.27,1.59-1.86,3.67h12.24l2.56-1.52C329.83,106.72,328.65,106.65,327.47,106.51Z"/><path class="cls-8" d="M355.62,107.15c-.75.41-1.51.89-2.26,1.23a16,16,0,0,1-6.67,1.31,14.69,14.69,0,0,1-9.14-2.68c-4.87-3.44-7-9.35-7-14.5,0-10.65,8.66-15.87,15.73-15.87a13.32,13.32,0,0,1,7.08,1.93,11.32,11.32,0,0,1,4.8,6.79L342,91.89l-5.29.42c1.72,8.72,7.63,13.8,14.16,13.8a17.73,17.73,0,0,0,8.38-2.4Zm-6.45-20.48c1.3-.48,2-.89,2-1.85,0-2.75-3.09-5.91-6.8-5.91-2.76,0-7.9,2.13-7.9,9.55,0,1.17.13,2.4.2,3.64Z"/><path class="cls-8" d="M362.26,77.11v4.54h-.56V77.11h-1.5v-.47h3.55v.47Z"/><path class="cls-8" d="M368.44,81.65V77.07h0L367,81.65h-.43l-1.41-4.58h0v4.58h-.5v-5h.85l1.28,4h0l1.25-4h.87v5Z"/><path class="cls-9" d="M169,47.58h-3.43a22.73,22.73,0,0,0-1-4h-5a20.2,20.2,0,0,0-1,4h-3.24c0-.28.84-2.58,2.51-6.88a54.08,54.08,0,0,0,2.51-7.11h4.06a60.25,60.25,0,0,0,2.27,7A59.31,59.31,0,0,1,169,47.58Zm-5-6.07c-1.22-3.7-1.84-5.7-1.84-6H162a62.1,62.1,0,0,1-1.9,6Z"/><path class="cls-9" d="M182.81,47.58h-2.66q0-.45-3-4.66c-2.06-3-3.24-5-3.53-6.07h-.17a37.72,37.72,0,0,1,.27,4.26c0,1.77,0,3.92.15,6.47h-2.64q.16-3.33.16-7.32c0-2.61-.05-4.84-.16-6.67h3.19q0,.57,2.65,4.54a26.79,26.79,0,0,1,3.25,5.73h.16a41.19,41.19,0,0,1-.26-4.3q0-2.91-.15-6h2.69q-.15,2.67-.15,6.67T182.81,47.58Z"/><path class="cls-9" d="M198.38,40.1a8,8,0,0,1-2,5.33,6.82,6.82,0,0,1-5.48,2.27q-1.59,0-4.38-.12.13-3.26.14-7.32t-.14-6.67h1.88l1.37,0,1.2,0c2.58,0,4.46.65,5.62,1.94A6.7,6.7,0,0,1,198.38,40.1Zm-2.94.46a5.18,5.18,0,0,0-1.2-3.47,4.54,4.54,0,0,0-3.67-1.42,12.72,12.72,0,0,0-1.27.1c.07,1.43.11,2.93.11,4.49,0,1.71,0,3.41.1,5.09a7.39,7.39,0,0,0,1.4.14,4.07,4.07,0,0,0,3.42-1.43A5.55,5.55,0,0,0,195.44,40.56Z"/><path class="cls-9" d="M212.73,47.58h-3.18a21.41,21.41,0,0,0-1.91-4.7,2.51,2.51,0,0,0-2.15-.89H204.3c0,1.84,0,3.7.1,5.58h-3q.14-3.26.14-7.32t-.14-6.67h1.86l1.35,0c.68,0,1.31,0,1.89,0q4.94,0,4.93,3.38a3.78,3.78,0,0,1-2.81,3.72v.17a3.33,3.33,0,0,1,1.9,1.69A37.1,37.1,0,0,1,212.73,47.58Zm-4-9.89c0-1.42-.91-2.14-2.75-2.14a8.65,8.65,0,0,0-1.78.16c.08,1.11.12,2.55.12,4.33l1,0C207.56,40.07,208.7,39.28,208.7,37.69Z"/><path class="cls-9" d="M228.13,40.32a7.69,7.69,0,0,1-2,5.47,6.54,6.54,0,0,1-5,2.17,6.3,6.3,0,0,1-4.75-2,7,7,0,0,1-1.91-5.07,7.68,7.68,0,0,1,2-5.46,6.52,6.52,0,0,1,5-2.17,6.35,6.35,0,0,1,4.75,2A7,7,0,0,1,228.13,40.32Zm-3,.32A5.61,5.61,0,0,0,224,37a3.55,3.55,0,0,0-2.84-1.39,3.28,3.28,0,0,0-2.66,1.4,5.64,5.64,0,0,0-1.1,3.56,5.55,5.55,0,0,0,1.16,3.64,3.53,3.53,0,0,0,2.83,1.4,3.27,3.27,0,0,0,2.66-1.41A5.65,5.65,0,0,0,225.17,40.64Z"/><path class="cls-9" d="M234.2,47.58h-3c.1-2.22.14-4.66.14-7.32s0-4.84-.14-6.67h3c-.09,1.8-.14,4-.14,6.67S234.11,45.4,234.2,47.58Z"/><path class="cls-9" d="M249.77,40.1a8,8,0,0,1-2,5.33,6.82,6.82,0,0,1-5.48,2.27q-1.59,0-4.38-.12.14-3.26.14-7.32T238,33.59h1.88l1.37,0,1.2,0q3.87,0,5.62,1.94A6.69,6.69,0,0,1,249.77,40.1Zm-2.93.46a5.18,5.18,0,0,0-1.2-3.47A4.54,4.54,0,0,0,242,35.67a12.56,12.56,0,0,0-1.26.1c.07,1.43.1,2.93.1,4.49,0,1.71,0,3.41.11,5.09a7.39,7.39,0,0,0,1.4.14,4.07,4.07,0,0,0,3.42-1.43A5.55,5.55,0,0,0,246.84,40.56Z"/><path class="cls-9" d="M270.43,47.58H267a21.78,21.78,0,0,0-1-4h-5a21,21,0,0,0-1,4h-3.23a71.52,71.52,0,0,1,2.51-6.88,53.07,53.07,0,0,0,2.5-7.11h4.07a58,58,0,0,0,2.27,7A61.68,61.68,0,0,1,270.43,47.58Zm-5-6.07a59.7,59.7,0,0,1-1.84-6h-.17c0,.28-.64,2.28-1.9,6Z"/><path class="cls-9" d="M283,37.25A4.18,4.18,0,0,1,281.05,41a8.44,8.44,0,0,1-4.67,1.23l-.72,0c0,1.34,0,3.12.11,5.33h-3q.14-3.11.13-7.32,0-3.87-.13-6.67h1.86l1.53,0c.75,0,1.4,0,2,0a6.11,6.11,0,0,1,3.45.93A3.11,3.11,0,0,1,283,37.25Zm-2.77.59c0-1.53-1-2.3-3.05-2.3a8.4,8.4,0,0,0-1.61.17c.08,1.35.11,2.88.11,4.59a6,6,0,0,0,.63,0C278.88,40.32,280.19,39.5,280.19,37.84Z"/><path class="cls-9" d="M295.84,37.25a4.18,4.18,0,0,1-1.9,3.79,8.45,8.45,0,0,1-4.68,1.23l-.72,0c0,1.34,0,3.12.12,5.33h-3q.14-3.11.14-7.32,0-3.87-.14-6.67h1.87l1.52,0c.76,0,1.41,0,2,0a6.13,6.13,0,0,1,3.45.93A3.11,3.11,0,0,1,295.84,37.25Zm-2.77.59c0-1.53-1-2.3-3.05-2.3a8.48,8.48,0,0,0-1.61.17q.12,2,.12,4.59a5.92,5.92,0,0,0,.62,0C291.77,40.32,293.07,39.5,293.07,37.84Z"/><path class="cls-9" d="M316.91,40.32a7.69,7.69,0,0,1-2,5.47,6.55,6.55,0,0,1-5,2.17,6.28,6.28,0,0,1-4.74-2,7,7,0,0,1-1.92-5.07,7.73,7.73,0,0,1,2-5.46,6.56,6.56,0,0,1,5-2.17,6.35,6.35,0,0,1,4.75,2A7,7,0,0,1,316.91,40.32Zm-3,.32A5.56,5.56,0,0,0,312.79,37,3.52,3.52,0,0,0,310,35.6a3.29,3.29,0,0,0-2.67,1.4,5.64,5.64,0,0,0-1.09,3.56,5.55,5.55,0,0,0,1.15,3.64,3.56,3.56,0,0,0,2.83,1.4,3.28,3.28,0,0,0,2.67-1.41A5.64,5.64,0,0,0,313.94,40.64Z"/><path class="cls-9" d="M331.47,47.58h-2.65q0-.45-3-4.66c-2.06-3-3.24-5-3.52-6.07h-.17a37.72,37.72,0,0,1,.27,4.26c0,1.77,0,3.92.15,6.47h-2.65q.17-3.33.16-7.32c0-2.61-.05-4.84-.16-6.67h3.19q0,.57,2.66,4.54A27,27,0,0,1,329,43.86h.16a41.19,41.19,0,0,1-.26-4.3q0-2.91-.15-6h2.69q-.15,2.67-.15,6.67T331.47,47.58Z"/></g></g></svg>